# xmcd
#
# Track frame offsets:
#	150
#	4744
#	15555
#	25682
#	39191
#	51073
#	61928
#	78576
#	92978
#	104052
#	115512
#	127908
#	137948
#	155771
#	170916
#	182122
#	196852
#	218272
#
# Disc length: 3214 seconds
#
# Revision: 1
# Processed by: cddbd v1.5.2PL0 Copyright (c) Steve Scherf et al.
# Submitted via: EZCDAudioConverter 3.1.7.1
#
DISCID=e90c8c12
DTITLE=Gilles Vigneault - Musicorama
DYEAR=1969
DGENRE=National Folk
TTITLE0=Introduction
TTITLE1=tam ti delam
TTITLE2=J'ai pour toi un lac
TTITLE3=Jos Monferrand-intro
TTITLE4=Jos Monferrand
TTITLE5=Pendant que
TTITLE6=les voyageurs
TTITLE7=Quand vous mourrez de nos amours
TTITLE8=Jack Monoloy
TTITLE9=monologue
TTITLE10=fer et titane
TTITLE11=Mon pays
TTITLE12=Bébé la guitare
TTITLE13=Le doux chagrin
TTITLE14=Zidor le prospecteur
TTITLE15=Les gens de mon pays
TTITLE16=La Manikoutai
TTITLE17=La danse à St Dilon
EXTD=
EXTT0=
EXTT1=
EXTT2=
EXTT3=
EXTT4=
EXTT5=
EXTT6=
EXTT7=
EXTT8=
EXTT9=
EXTT10=
EXTT11=
EXTT12=
EXTT13=
EXTT14=
EXTT15=
EXTT16=
EXTT17=
PLAYORDER=
